<svg xmlns="http://www.w3.org/2000/svg" viewBox="0 0 64 64" width="64" height="64">
  <g stroke="#0b0b0b" stroke-width="2.0" stroke-linecap="round">
    <line x1="40.0" y1="11.0" x2="24.0" y2="11.0" />
    <line x1="45.1" y1="16.0" x2="18.9" y2="16.0" />
    <line x1="45.6" y1="21.0" x2="18.4" y2="21.0" />
    <line x1="41.3" y1="26.0" x2="22.7" y2="26.0" />
    <line x1="25.5" y1="36.0" x2="38.5" y2="36.0" />
    <line x1="19.6" y1="41.0" x2="44.4" y2="41.0" />
    <line x1="18.1" y1="46.0" x2="45.9" y2="46.0" />
    <line x1="21.5" y1="51.0" x2="42.5" y2="51.0" />
  </g>
  <g fill="none" stroke="#0b0b0b" stroke-width="3.4" stroke-linecap="round" stroke-linejoin="round">
    <path d="M 32.0 6.0 L 33.7 7.0 L 35.4 8.0 L 37.0 9.0 L 38.5 10.0 L 40.0 11.0 L 41.3 12.0 L 42.5 13.0 L 43.5 14.0 L 44.4 15.0 L 45.1 16.0 L 45.6 17.0 L 45.9 18.0 L 46.0 19.0 L 45.9 20.0 L 45.6 21.0 L 45.1 22.0 L 44.4 23.0 L 43.5 24.0 L 42.5 25.0 L 41.3 26.0 L 40.0 27.0 L 38.5 28.0 L 37.0 29.0 L 35.4 30.0 L 33.7 31.0 L 32.0 32.0 L 30.3 33.0 L 28.6 34.0 L 27.0 35.0 L 25.5 36.0 L 24.0 37.0 L 22.7 38.0 L 21.5 39.0 L 20.5 40.0 L 19.6 41.0 L 18.9 42.0 L 18.4 43.0 L 18.1 44.0 L 18.0 45.0 L 18.1 46.0 L 18.4 47.0 L 18.9 48.0 L 19.6 49.0 L 20.5 50.0 L 21.5 51.0 L 22.7 52.0 L 24.0 53.0 L 25.5 54.0 L 27.0 55.0 L 28.6 56.0 L 30.3 57.0 L 32.0 58.0" />
    <path d="M 32.0 6.0 L 30.3 7.0 L 28.6 8.0 L 27.0 9.0 L 25.5 10.0 L 24.0 11.0 L 22.7 12.0 L 21.5 13.0 L 20.5 14.0 L 19.6 15.0 L 18.9 16.0 L 18.4 17.0 L 18.1 18.0 L 18.0 19.0 L 18.1 20.0 L 18.4 21.0 L 18.9 22.0 L 19.6 23.0 L 20.5 24.0 L 21.5 25.0 L 22.7 26.0 L 24.0 27.0 L 25.5 28.0 L 27.0 29.0 L 28.6 30.0 L 30.3 31.0 L 32.0 32.0 L 33.7 33.0 L 35.4 34.0 L 37.0 35.0 L 38.5 36.0 L 40.0 37.0 L 41.3 38.0 L 42.5 39.0 L 43.5 40.0 L 44.4 41.0 L 45.1 42.0 L 45.6 43.0 L 45.9 44.0 L 46.0 45.0 L 45.9 46.0 L 45.6 47.0 L 45.1 48.0 L 44.4 49.0 L 43.5 50.0 L 42.5 51.0 L 41.3 52.0 L 40.0 53.0 L 38.5 54.0 L 37.0 55.0 L 35.4 56.0 L 33.7 57.0 L 32.0 58.0" />
  </g>
</svg>
